<svg width="23" height="24" viewBox="0 0 23 24" fill="none" xmlns="http://www.w3.org/2000/svg">
<path d="M11.25 0.75C5.04 0.75 0 5.79 0 12C0 18.21 5.04 23.25 11.25 23.25C17.46 23.25 22.5 18.21 22.5 12C22.5 5.79 17.46 0.75 11.25 0.75ZM8.20125 16.8263L4.1625 12.7875C3.72375 12.3488 3.72375 11.64 4.1625 11.2013C4.60125 10.7625 5.31 10.7625 5.74875 11.2013L9 14.4412L16.74 6.70125C17.1787 6.2625 17.8875 6.2625 18.3263 6.70125C18.765 7.14 18.765 7.84875 18.3263 8.2875L9.7875 16.8263C9.36 17.265 8.64 17.265 8.20125 16.8263Z" fill="#2196F3"/>
</svg>
